<?xml version="1.0" encoding="UTF-8" standalone="no"?>
<svg
   xmlns:dc="http://purl.org/dc/elements/1.1/"
   xmlns:cc="http://creativecommons.org/ns#"
   xmlns:rdf="http://www.w3.org/1999/02/22-rdf-syntax-ns#"
   xmlns:svg="http://www.w3.org/2000/svg"
   xmlns="http://www.w3.org/2000/svg"
   xmlns:sodipodi="http://sodipodi.sourceforge.net/DTD/sodipodi-0.dtd"
   xmlns:inkscape="http://www.inkscape.org/namespaces/inkscape"
   width="210mm"
   height="297mm"
   viewBox="0 0 210 297"
   version="1.1"
   id="svg8"
   sodipodi:docname="radio.svg"
   inkscape:version="1.0.1 (0767f8302a, 2020-10-17)">
  <sodipodi:namedview
     pagecolor="#ffffff"
     bordercolor="#666666"
     borderopacity="1"
     objecttolerance="10"
     gridtolerance="10"
     guidetolerance="10"
     inkscape:pageopacity="0"
     inkscape:pageshadow="2"
     inkscape:window-width="1550"
     inkscape:window-height="836"
     id="namedview864"
     showgrid="false"
     inkscape:zoom="10.022695"
     inkscape:cx="22.617131"
     inkscape:cy="25.298783"
     inkscape:window-x="50"
     inkscape:window-y="27"
     inkscape:window-maximized="1"
     inkscape:current-layer="svg8" />
  <defs
     id="defs2" />
  <metadata
     id="metadata5">
    <rdf:RDF>
      <cc:Work
         rdf:about="">
        <dc:format>image/svg+xml</dc:format>
        <dc:type
           rdf:resource="http://purl.org/dc/dcmitype/StillImage" />
        <dc:title></dc:title>
      </cc:Work>
    </rdf:RDF>
  </metadata>
  <g
     id="g1472"
     inkscape:export-xdpi="96"
     inkscape:export-ydpi="96">
    <rect
       style="opacity:0.992;fill:none;stroke:#ff0000;stroke-width:0.264583;stroke-miterlimit:4;stroke-dasharray:none"
       id="rect833"
       width="9.1292105"
       height="4.025609"
       x="0.13229169"
       y="0.1322915"
       ry="0.43785125"
       rx="0.42979059" />
    <path
       id="rect841"
       style="opacity:0.992;fill:#ff0000;fill-opacity:1;stroke:#ff0000;stroke-width:0.0627994"
       d="M 3.1959853,0.54268622 V 2.2839091 h 1.102339 A 0.85412785,0.85412785 0 0 1 5.0410967,1.8509362 0.85412785,0.85412785 0 0 1 5.7838694,2.2839091 H 6.8830981 V 0.54268622 Z" />
    <path
       id="path839"
       style="opacity:0.992;fill:#ff0000;fill-opacity:1;stroke:#1a1a1a;stroke-width:0.00695455;stroke-miterlimit:4;stroke-dasharray:none"
       d="M 5.0211898,1.6195197 A 1.078215,1.078215 0 0 0 3.9611531,2.6975973 1.078215,1.078215 0 0 0 5.0392305,3.7756749 1.078215,1.078215 0 0 0 6.1179303,2.6975973 1.078215,1.078215 0 0 0 5.0392305,1.6195197 a 1.078215,1.078215 0 0 0 -0.018041,0 z m 6.371e-4,0.2339049 a 0.84400914,0.84400914 0 0 1 0.017419,0 0.84400914,0.84400914 0 0 1 0.844173,0.8441727 A 0.84400914,0.84400914 0 0 1 5.0392462,3.54177 0.84400914,0.84400914 0 0 1 4.1956957,2.6975973 0.84400914,0.84400914 0 0 1 5.0218269,1.8534246 Z" />
    <circle
       style="opacity:0.992;fill:none;stroke:#ff0000;stroke-width:0.347727;stroke-miterlimit:4;stroke-dasharray:none"
       id="path857"
       cx="8.0050611"
       cy="1.3722705"
       r="0.48768386" />
    <circle
       style="opacity:0.992;fill:none;stroke:#ff0000;stroke-width:0.347727;stroke-miterlimit:4;stroke-dasharray:none"
       id="circle863"
       cx="8.0050611"
       cy="2.9179215"
       r="0.48768386" />
    <rect
       style="opacity:0.992;fill:none;stroke:#ff0000;stroke-width:0.112997;stroke-miterlimit:4;stroke-dasharray:none"
       id="rect867"
       width="0.88892001"
       height="0.29260677"
       x="1.7812932"
       y="0.79566437" />
    <rect
       style="opacity:0.992;fill:none;stroke:#ff0000;stroke-width:0.112997;stroke-miterlimit:4;stroke-dasharray:none"
       id="rect869"
       width="0.88892001"
       height="0.29260677"
       x="0.66551149"
       y="0.79566437" />
    <rect
       style="opacity:0.992;fill:none;stroke:#ff0000;stroke-width:0.112997;stroke-miterlimit:4;stroke-dasharray:none"
       id="rect873"
       width="0.88892001"
       height="0.29260677"
       x="1.7812932"
       y="1.2242309" />
    <rect
       style="opacity:0.992;fill:none;stroke:#ff0000;stroke-width:0.112997;stroke-miterlimit:4;stroke-dasharray:none"
       id="rect875"
       width="0.88892001"
       height="0.29260677"
       x="0.66551149"
       y="1.2242309" />
    <rect
       style="opacity:0.992;fill:none;stroke:#ff0000;stroke-width:0.112997;stroke-miterlimit:4;stroke-dasharray:none"
       id="rect879"
       width="0.88892001"
       height="0.29260677"
       x="1.7812932"
       y="1.6527971" />
    <rect
       style="opacity:0.992;fill:none;stroke:#ff0000;stroke-width:0.112997;stroke-miterlimit:4;stroke-dasharray:none"
       id="rect881"
       width="0.88892001"
       height="0.29260677"
       x="0.66551149"
       y="1.6527971" />
    <circle
       style="opacity:0.992;fill:none;stroke:#ff0000;stroke-width:0.347727;stroke-miterlimit:4;stroke-dasharray:none"
       id="circle885"
       cx="1.6678624"
       cy="2.8894784"
       r="0.48768386" />
  </g>
  <g
     id="g1420"
     transform="matrix(2.2149986,0,0,2.2149986,-3.6897008,-14.14995)"
     style="fill:#1a1a1a;stroke:none"
     inkscape:export-xdpi="96"
     inkscape:export-ydpi="96">
    <ellipse
       style="opacity:1;fill:#1a1a1a;fill-opacity:1;stroke:none;stroke-width:0.264583;stroke-miterlimit:4;stroke-dasharray:none"
       id="path1207"
       cx="3.565064"
       cy="9.6785927"
       rx="0.71717739"
       ry="0.66277128" />
    <ellipse
       style="opacity:0.992;fill:#1a1a1a;fill-opacity:1;stroke:none;stroke-width:0.264583;stroke-miterlimit:4;stroke-dasharray:none"
       id="path1209"
       cx="2.8460875"
       cy="10.305276"
       rx="0.81250429"
       ry="0.71024543" />
    <ellipse
       style="opacity:0.992;fill:#1a1a1a;fill-opacity:1;stroke:none;stroke-width:0.264583;stroke-miterlimit:4;stroke-dasharray:none"
       id="path1211"
       cx="4.2661943"
       cy="10.305276"
       rx="0.7903986"
       ry="0.70845455" />
  </g>
</svg>
